<svg xmlns="http://www.w3.org/2000/svg" viewBox="0 0 160.07 460.13"><defs><style>.cls-1{fill:#010101;}.cls-2{fill:#fff;}</style></defs><g id="black"><path id="black-female-dancer" class="cls-1" d="M68.6,81.13v-4c-10,3-5-7-5-7-7,4-6-6-6-6-8,3-5-6-5-6-7,0-.74-8.23-.74-8.23-4.75-1.23.74-9.77.74-9.77-3-3,4-11,4-11-3-5,2-10,2-10,2-12,14-13,14-13s5.88-6.88,9.94-3.94c0,0,11.68-4.4,12.87-.73,0,0,9.19-2.33,9.19.67,0,0,9-3,9,3,0,0,9.17,5.5,5.09,7.75,0,0,9.91,7.25,5.91,11.25,0,0,4.91,5.72,1,6.86,0,0,7,3.14,3,6.14,0,0,7.19,7.87,2.6,10.93,0,0,6.4,10.07-.6,11.07,0,0,2,10-3,10,0,0,2,5-4,4v5s13,1,12,9c0,0,8,21,7,34,0,0,6,19,6,29s2,29,2,29-2,15-4,17c0,0,3,40,10,42,0,0,10,8-4,14s-38,6-38,6-10,42-18,53c0,0-2,12,1,12,0,0,10,16,9,36s7,38,7,38,5,9,7,9,7,4,3,10c0,0,7,4,5,9s-5,9-11,4-8,8-8,8,5,23-4,23-10-4-13-25c0,0-1-17,1-19s-7-37-7-37-3-11-8,2-8,30-8,30,3,52-12,43c0,0-7,0-6-30,0,0-5.46,3.45-8.23-4.78s7.23-20.22,7.23-20.22,12-19,11-36,6-38,6-38,4-3-2-16-14-43-14-43,2-8-6-5-27-2-27-2-14-10-16-13-7-3.82,0-14.41,16-37.59,20-39.59c0,0,4-26,9-26,0,0,2-55,10-67C42.6,99.13,37.6,86.13,68.6,81.13Z"/></g><g id="white"><path id="white-female-dancer" class="cls-2" d="M60.5,151.63c-.1,9.5-10.9,17.5-10.9,17.5,5-4,7-35,7-35A42.65,42.65,0,0,1,60.5,151.63Zm57.1-5.5c0,14,11,26,11,26-4,0-3-42-3-42S117.6,132.13,117.6,146.13Z"/></g></svg>