<svg xmlns="http://www.w3.org/2000/svg" viewBox="0 0 213.6 210.71"><defs><style>.cls-1{fill:none;stroke:#010101;stroke-miterlimit:10;stroke-width:4.25px;}.cls-2{fill:#fff;}</style></defs><g id="black"><path id="black-knot" class="cls-1" d="M191.35,124.59a84,84,0,1,1-84-84A84,84,0,0,1,191.35,124.59Zm-84.5-66.5a67,67,0,1,0,67,67A67,67,0,0,0,106.85,58.09Zm-.5-55.65s-67,47.15-39,120.15,99,87,144,65c0,0,6.5-61.14-74-94.82,0,0-114.5-27.43-135,92.94,0,0,61.5,34.38,122.5-23.62S137.85,16.8,106.35,2.44Zm0,21.82s-59.5,55.83-3.5,122.83c0,0,30,40,91,28,0,0-16-72-90-68s-84.47,70.24-84.47,70.24S94.23,197.09,128,128.09,106.35,24.26,106.35,24.26Zm0,0L95.11,41.47l28.34-.88ZM84.15,62S78,85.69,80.41,93.39c0,0,39.44-7.94,56.94-.62,0,0,3.76-11.39-1.37-28C136,64.74,109.45,52,84.15,62ZM59.47,77.72s-19.25,23.37-17.93,32.37L61.38,99.77Zm-30.53,77-8.17,22.9L44.18,180S29,163.44,28.94,154.76Zm12.53-20.5s5.73,32,24.55,43.39l28.83-11.5s-28.4-34.94-30.7-49Zm41.81-24.17s12.39,34.56,26,43.78c0,0,26.31-31.83,25.45-42.31C134.71,111.56,114.72,103.09,83.28,110.09Zm69.28,7.84-27.71,44.16s2.42,7.86,27.71,13.43c0,0,24.76-31.14,20.52-40.29Zm1.67-40.21v23.16L172.76,113S162.61,81.35,154.23,77.72Zm31.07,78.21-9.83,21.33,18.38-2.17Zm-98,31.5s20,9.33,37.79,0l-18.9-10.17Z"/></g><g id="white"><path id="white-knot" class="cls-2" d="M39.85,110.09c-3.5,11.5,0,29.15,0,29.15l-7.92,15.52c-6.42-7.82-6.33-29.67-6.33-29.67C24.86,122.59,39.85,110.09,39.85,110.09Zm8.5,83.5c16,1,38-8,38-8l-12.64-7.94c-9.63,4.07-32.24,4.14-32.24,4.14Zm93,5c12-2,31.41-24.51,31.41-24.51l-14.41-3.49c-11,15-32,20-32,20Zm30-69s17,22,17,25l5.5-16.15s-10.08-18-24.79-25.45Zm-78,32s13.83,14.13,19.42,16.06l11.34-10.3s-15.76-10.76-18.76-14.76ZM60.26,117.15C72.17,109.71,87,107.32,87,107.32L85.35,94.59c-11,1-27,9-27,9Zm70.09-56.56c13,4,24.74,15.19,24.74,15.19l-2.74-19.19c-10-10-30-12-30-12Zm-57-17s-11,24-10,36l14.22-3.81s5.78-28.19,14.78-37.19Zm75,77c4-5,4-29,4-29l-11-4a97.66,97.66,0,0,1-6,29Z"/></g></svg>